<svg preserveAspectRatio="none" overflow="visible" style="display: block;" width="18" height="18" viewBox="0 0 18 18" fill="none" xmlns="http://www.w3.org/2000/svg">
<g id="ic/bar_chart">
<path id="Vector" d="M12.75 15C12.5375 15 12.3594 14.9281 12.2156 14.7844C12.0719 14.6406 12 14.4625 12 14.25V10.5C12 10.2875 12.0719 10.1094 12.2156 9.96563C12.3594 9.82188 12.5375 9.75 12.75 9.75H14.25C14.4625 9.75 14.6406 9.82188 14.7844 9.96563C14.9281 10.1094 15 10.2875 15 10.5V14.25C15 14.4625 14.9281 14.6406 14.7844 14.7844C14.6406 14.9281 14.4625 15 14.25 15H12.75ZM8.25 15C8.0375 15 7.85938 14.9281 7.71563 14.7844C7.57188 14.6406 7.5 14.4625 7.5 14.25V3.75C7.5 3.5375 7.57188 3.35938 7.71563 3.21563C7.85938 3.07188 8.0375 3 8.25 3H9.75C9.9625 3 10.1406 3.07188 10.2844 3.21563C10.4281 3.35938 10.5 3.5375 10.5 3.75V14.25C10.5 14.4625 10.4281 14.6406 10.2844 14.7844C10.1406 14.9281 9.9625 15 9.75 15H8.25ZM3.75 15C3.5375 15 3.35938 14.9281 3.21563 14.7844C3.07188 14.6406 3 14.4625 3 14.25V7.5C3 7.2875 3.07188 7.10938 3.21563 6.96563C3.35938 6.82188 3.5375 6.75 3.75 6.75H5.25C5.4625 6.75 5.64063 6.82188 5.78438 6.96563C5.92813 7.10938 6 7.2875 6 7.5V14.25C6 14.4625 5.92813 14.6406 5.78438 14.7844C5.64063 14.9281 5.4625 15 5.25 15H3.75Z" fill="#707172"/>
</g>
</svg>
