<svg class="ic" viewBox="0 0 15 15" fill="none" xmlns="http://www.w3.org/2000/svg" aria-hidden="true" focusable="false"><path id="Vector" d="M7.14844 10.793C7.03906 10.7539 6.9375 10.6875 6.84375 10.5938L3.46875 7.21875C3.28125 7.03125 3.19141 6.8125 3.19922 6.5625C3.20703 6.3125 3.29687 6.09375 3.46875 5.90625C3.65625 5.71875 3.87891 5.62109 4.13672 5.61328C4.39453 5.60547 4.61719 5.69531 4.80469 5.88281L6.5625 7.64062V0.9375C6.5625 0.671875 6.65234 0.449219 6.83203 0.269531C7.01172 0.0898438 7.23438 0 7.5 0C7.76562 0 7.98828 0.0898438 8.16797 0.269531C8.34766 0.449219 8.4375 0.671875 8.4375 0.9375V7.64062L10.1953 5.88281C10.3828 5.69531 10.6055 5.60547 10.8633 5.61328C11.1211 5.62109 11.3438 5.71875 11.5312 5.90625C11.7031 6.09375 11.793 6.3125 11.8008 6.5625C11.8086 6.8125 11.7188 7.03125 11.5312 7.21875L8.15625 10.5938C8.0625 10.6875 7.96094 10.7539 7.85156 10.793C7.74219 10.832 7.625 10.8516 7.5 10.8516C7.375 10.8516 7.25781 10.832 7.14844 10.793ZM1.875 15C1.35938 15 0.917969 14.8164 0.550781 14.4492C0.183594 14.082 0 13.6406 0 13.125V11.25C0 10.9844 0.0898438 10.7617 0.269531 10.582C0.449219 10.4023 0.671875 10.3125 0.9375 10.3125C1.20312 10.3125 1.42578 10.4023 1.60547 10.582C1.78516 10.7617 1.875 10.9844 1.875 11.25V13.125H13.125V11.25C13.125 10.9844 13.2148 10.7617 13.3945 10.582C13.5742 10.4023 13.7969 10.3125 14.0625 10.3125C14.3281 10.3125 14.5508 10.4023 14.7305 10.582C14.9102 10.7617 15 10.9844 15 11.25V13.125C15 13.6406 14.8164 14.082 14.4492 14.4492C14.082 14.8164 13.6406 15 13.125 15H1.875Z" fill="#162946"/></svg>